<svg width="172" height="56" viewBox="0 0 172 56" fill="none" xmlns="http://www.w3.org/2000/svg">
<g clip-path="url(#clip0)">
<path d="M44.9369 5.70264L40.4888 10.5689C45.9253 14.4467 49.461 20.8337 49.461 27.981C49.461 39.8045 39.8425 49.4229 28.019 49.4229C27.1826 49.4229 26.3463 49.3849 25.5099 49.2709L39.0061 35.2423C40.7549 33.4175 41.7054 30.9844 41.6674 28.4372C41.5913 25.89 40.5649 23.5329 38.702 21.7841L34.1399 17.4881L29.6918 22.3544L34.1779 26.5743C34.7482 27.1066 35.0903 27.8289 35.0903 28.6273C35.1283 29.4256 34.8242 30.148 34.2919 30.7182L29.8059 35.3564L14.2186 52.3883C18.2865 54.7074 23.0007 56.038 27.981 56.038C43.4162 56.038 56 43.4922 56 28.019C56 18.9328 51.666 10.835 44.9369 5.70264Z" fill="url(#paint0_linear)"/>
<path d="M6.57705 28.019C6.57705 16.1955 16.1955 6.57705 28.019 6.57705C28.7033 6.57705 29.3876 6.61507 30.072 6.69111L16.5757 20.7576C14.8269 22.5825 13.8764 25.0156 13.9525 27.5628C14.0285 30.11 15.093 32.4671 16.9179 34.2159L21.518 38.5499L26.0041 33.7597L21.4039 29.4257C20.8337 28.8934 20.4915 28.1331 20.4915 27.3727C20.4535 26.5743 20.7576 25.852 21.2899 25.2817L26.1181 20.2254L41.9335 3.72573C37.8276 1.36864 33.0754 0 28.019 0C12.5458 0 0 12.5458 0 28.019C0 36.9912 4.25798 44.9749 10.835 50.1073L15.3211 45.279C9.99864 41.3632 6.57705 35.0903 6.57705 28.019Z" fill="url(#paint1_linear)"/>
<path d="M73.2981 40.2606C73.9824 40.2606 74.5526 40.2226 75.0089 40.0705C75.4651 39.9564 75.8072 39.8044 76.0734 39.6143C76.3395 39.4242 76.5296 39.1961 76.6436 38.93C76.7577 38.6638 76.7957 38.3597 76.7957 38.0175C76.7957 37.2952 76.4535 36.7249 75.8072 36.2687C75.1229 35.8125 73.9824 35.2803 72.3856 34.748C71.6633 34.4819 70.979 34.2158 70.2566 33.8736C69.5343 33.5695 68.926 33.1513 68.3558 32.6571C67.7855 32.1628 67.3293 31.5926 66.9871 30.8702C66.645 30.1859 66.4549 29.3115 66.4549 28.323C66.4549 27.3346 66.645 26.4222 67.0251 25.6238C67.4053 24.8254 67.9376 24.1411 68.6219 23.5708C69.3062 23.0006 70.1426 22.5824 71.1311 22.2782C72.1195 21.9741 73.222 21.822 74.4386 21.822C75.8833 21.822 77.1759 21.9741 78.2023 22.2782C79.2668 22.5824 80.1412 22.9245 80.8256 23.3047L79.4189 27.1445C78.8106 26.8404 78.1263 26.5742 77.404 26.3081C76.6816 26.08 75.7692 25.9659 74.7427 25.9659C73.5642 25.9659 72.7278 26.118 72.2336 26.4602C71.7393 26.8023 71.4732 27.2966 71.4732 27.9429C71.4732 28.323 71.5492 28.6652 71.7393 28.9313C71.9294 29.1974 72.1956 29.4636 72.5377 29.6537C72.8799 29.8818 73.26 30.0719 73.7163 30.2619C74.1725 30.452 74.6667 30.6041 75.1989 30.7942C76.3395 31.2124 77.2899 31.6306 78.1263 32.0108C78.9627 32.4289 79.647 32.8852 80.2173 33.4174C80.7875 33.9497 81.1677 34.596 81.4338 35.3183C81.7 36.0406 81.852 36.915 81.852 37.9795C81.852 39.9945 81.1297 41.5532 79.723 42.6937C78.3164 43.7962 76.1874 44.3665 73.2981 44.3665C72.3476 44.3665 71.4732 44.2905 70.7129 44.1764C69.9525 44.0623 69.2682 43.9103 68.6599 43.7582C68.0516 43.6061 67.5574 43.416 67.1392 43.226C66.721 43.0359 66.3408 42.8458 66.0747 42.6937L67.4433 38.8159C68.0896 39.1581 68.888 39.5002 69.8385 39.7664C70.7889 40.1465 71.9294 40.2606 73.2981 40.2606Z" fill="white"/>
<path d="M83.2587 23.4568L87.8969 22.6964V27.5247H93.4855V31.4025H87.8969V37.1811C87.8969 38.1696 88.087 38.93 88.4291 39.5382C88.7713 40.1085 89.4556 40.4126 90.5201 40.4126C91.0143 40.4126 91.5466 40.3746 92.0788 40.2606C92.6111 40.1845 93.1053 40.0325 93.5235 39.8804L94.1698 43.4921C93.5995 43.7202 92.9912 43.9103 92.3069 44.1004C91.6226 44.2524 90.7862 44.3665 89.7597 44.3665C88.5052 44.3665 87.4407 44.1764 86.6043 43.8342C85.7679 43.4921 85.1216 42.9978 84.5893 42.3896C84.0951 41.7813 83.753 41.0209 83.5248 40.1465C83.3348 39.2721 83.2207 38.3217 83.2207 37.2572V23.4568H83.2587Z" fill="white"/>
<path d="M105.309 31.6686C104.891 31.5546 104.397 31.4405 103.826 31.3265C103.256 31.2124 102.648 31.1364 102.001 31.1364C101.697 31.1364 101.355 31.1744 100.937 31.2124C100.519 31.2505 100.215 31.3265 100.025 31.4025V43.9483H95.3864V28.4371C96.2227 28.133 97.2112 27.8669 98.3517 27.6008C99.4923 27.3346 100.747 27.2206 102.154 27.2206C102.42 27.2206 102.724 27.2206 103.066 27.2586C103.408 27.2966 103.788 27.3346 104.13 27.3727C104.473 27.4107 104.853 27.4867 105.195 27.5627C105.537 27.6388 105.841 27.7148 106.107 27.8289L105.309 31.6686Z" fill="white"/>
<path d="M112.304 27.1066C113.673 27.1066 114.813 27.2586 115.726 27.5628C116.638 27.8669 117.361 28.3231 117.931 28.8934C118.501 29.4637 118.881 30.186 119.109 31.0224C119.337 31.8588 119.452 32.7712 119.452 33.7977V43.4922C118.767 43.6442 117.855 43.7963 116.676 44.0244C115.498 44.2145 114.053 44.3286 112.38 44.3286C111.316 44.3286 110.365 44.2525 109.491 44.0624C108.616 43.8724 107.894 43.5682 107.248 43.15C106.64 42.7318 106.145 42.1616 105.803 41.4772C105.461 40.7929 105.309 39.9565 105.309 38.9301C105.309 37.9796 105.499 37.1432 105.879 36.4969C106.259 35.8126 106.792 35.2804 107.438 34.9002C108.084 34.52 108.807 34.2159 109.643 34.0258C110.479 33.8357 111.354 33.7597 112.228 33.7597C112.836 33.7597 113.369 33.7977 113.825 33.8357C114.281 33.8737 114.661 33.9497 114.965 34.0258V33.5696C114.965 32.7712 114.737 32.1249 114.243 31.6687C113.749 31.1745 112.912 30.9463 111.734 30.9463C110.936 30.9463 110.175 31.0224 109.377 31.1364C108.617 31.2505 107.932 31.4026 107.362 31.6307L106.754 27.8669C107.02 27.7909 107.362 27.6768 107.78 27.6008C108.198 27.5248 108.616 27.4107 109.111 27.3347C109.605 27.2586 110.099 27.1826 110.631 27.1446C111.24 27.1446 111.772 27.1066 112.304 27.1066ZM112.684 40.7549C113.141 40.7549 113.597 40.7549 114.015 40.7169C114.433 40.6789 114.775 40.6789 115.003 40.6409V37.1052C114.813 37.0672 114.547 37.0292 114.167 36.9912C113.787 36.9531 113.445 36.9151 113.141 36.9151C112.684 36.9151 112.304 36.9531 111.924 36.9912C111.544 37.0292 111.202 37.1432 110.898 37.2953C110.593 37.4474 110.365 37.6375 110.213 37.9036C110.061 38.1697 109.947 38.4738 109.947 38.854C109.947 39.5764 110.175 40.0706 110.669 40.3747C111.164 40.6028 111.848 40.7549 112.684 40.7549Z" fill="white"/>
<path d="M121.656 23.4568L126.295 22.6964V27.5247H131.921V31.4025H126.333V37.1811C126.333 38.1696 126.523 38.93 126.865 39.5382C127.207 40.1085 127.891 40.4126 128.956 40.4126C129.45 40.4126 129.982 40.3746 130.515 40.2606C131.047 40.1845 131.541 40.0325 131.959 39.8804L132.606 43.4921C132.035 43.7202 131.427 43.9103 130.743 44.1004C130.058 44.2524 129.222 44.3665 128.196 44.3665C126.941 44.3665 125.876 44.1764 125.04 43.8342C124.204 43.4921 123.557 42.9978 123.025 42.3896C122.531 41.7813 122.189 41.0209 121.961 40.1465C121.771 39.2721 121.656 38.3217 121.656 37.2572V23.4568Z" fill="white"/>
<path d="M132.416 35.8886C132.416 34.4439 132.644 33.1513 133.1 32.0488C133.556 30.9463 134.126 30.0339 134.849 29.3115C135.571 28.5892 136.407 28.0189 137.358 27.6387C138.308 27.2586 139.297 27.0685 140.285 27.0685C142.604 27.0685 144.467 27.7908 145.798 29.1975C147.166 30.6421 147.813 32.7331 147.813 35.5084C147.813 35.7745 147.813 36.0787 147.775 36.3828C147.737 36.725 147.737 36.9911 147.699 37.2572H137.13C137.244 38.2077 137.7 38.968 138.46 39.5383C139.259 40.1085 140.323 40.3747 141.654 40.3747C142.49 40.3747 143.365 40.2986 144.163 40.1466C144.999 39.9945 145.646 39.8044 146.178 39.5763L146.786 43.34C146.52 43.4541 146.216 43.6062 145.798 43.7202C145.38 43.8343 144.923 43.9483 144.391 44.0624C143.897 44.1384 143.327 44.2525 142.756 44.2905C142.186 44.3665 141.578 44.3665 141.008 44.3665C139.525 44.3665 138.232 44.1384 137.13 43.7202C136.027 43.264 135.115 42.6937 134.392 41.9334C133.67 41.173 133.138 40.2606 132.796 39.2341C132.568 38.2457 132.416 37.1051 132.416 35.8886ZM143.327 34.1017C143.289 33.7216 143.251 33.3034 143.137 32.9612C143.022 32.581 142.832 32.2389 142.604 31.9728C142.376 31.6686 142.072 31.4405 141.692 31.2504C141.312 31.0603 140.855 30.9843 140.323 30.9843C139.791 30.9843 139.373 31.0603 138.993 31.2504C138.612 31.4405 138.308 31.6686 138.042 31.9347C137.776 32.2389 137.586 32.581 137.472 32.9612C137.32 33.3414 137.244 33.7216 137.168 34.1398H143.327V34.1017Z" fill="white"/>
<path d="M163.742 41.9334C163.742 44.6327 163.058 46.6096 161.689 47.9022C160.32 49.1948 158.23 49.8411 155.378 49.8411C154.39 49.8411 153.363 49.765 152.375 49.5749C151.386 49.3849 150.436 49.1568 149.599 48.8906L150.398 44.9748C151.12 45.279 151.881 45.5071 152.679 45.6591C153.477 45.8112 154.39 45.9253 155.416 45.9253C156.747 45.9253 157.697 45.6211 158.23 45.0509C158.8 44.4806 159.066 43.7202 159.066 42.8078V42.1995C158.572 42.4276 158.039 42.6177 157.507 42.7318C156.975 42.8458 156.405 42.9219 155.758 42.9219C153.477 42.9219 151.767 42.2375 150.55 40.9069C149.333 39.5763 148.725 37.6754 148.725 35.2803C148.725 34.0638 148.915 32.9612 149.295 31.9728C149.676 30.9843 150.208 30.1479 150.93 29.4256C151.652 28.7033 152.527 28.171 153.553 27.7908C154.58 27.4107 155.758 27.2206 157.089 27.2206C157.659 27.2206 158.229 27.2586 158.838 27.2966C159.446 27.3346 160.016 27.4107 160.587 27.4867C161.157 27.5627 161.727 27.6768 162.259 27.7908C162.792 27.9049 163.248 28.019 163.666 28.133V41.9334H163.742ZM153.515 35.2423C153.515 37.8655 154.58 39.1581 156.671 39.1581C157.165 39.1581 157.583 39.0821 158.001 38.968C158.42 38.854 158.762 38.7019 159.066 38.5118V31.0984C158.838 31.0604 158.572 31.0223 158.268 30.9843C157.963 30.9463 157.583 30.9463 157.165 30.9463C155.948 30.9463 155.036 31.3645 154.428 32.1629C153.819 32.9612 153.515 33.9877 153.515 35.2423Z" fill="white"/>
<path d="M171.345 22.8105C171.345 23.6469 171.079 24.3312 170.509 24.8254C169.939 25.3197 169.293 25.5478 168.57 25.5478C167.848 25.5478 167.164 25.3197 166.631 24.8254C166.061 24.3312 165.795 23.6469 165.795 22.8105C165.795 21.9741 166.061 21.2898 166.631 20.7956C167.202 20.3013 167.848 20.0732 168.57 20.0732C169.293 20.0732 169.977 20.3013 170.509 20.7956C171.079 21.2898 171.345 21.9361 171.345 22.8105ZM170.889 43.9863H166.251V27.5627H170.889V43.9863Z" fill="white"/>
<path d="M72.1575 8.78206C71.0169 8.78206 70.2186 9.08621 69.6863 9.73251C69.1921 10.3788 68.926 11.2152 68.926 12.3177C68.926 12.85 69.002 13.3442 69.1161 13.7624C69.2301 14.1806 69.4202 14.5607 69.6863 14.8649C69.9524 15.169 70.2566 15.4352 70.6368 15.5872C71.0169 15.7773 71.4351 15.8533 71.9674 15.8533C72.2335 15.8533 72.4616 15.8533 72.6517 15.8533C72.8418 15.8533 73.0319 15.8153 73.1459 15.7773V12.0136H75.5791V17.3741C75.2749 17.4881 74.8187 17.6022 74.1724 17.7542C73.5261 17.8683 72.7277 17.9443 71.7773 17.9443C70.9789 17.9443 70.2186 17.8303 69.5723 17.5641C68.926 17.298 68.3557 16.9559 67.8615 16.4616C67.4053 15.9674 67.0251 15.3971 66.759 14.7128C66.4928 14.0285 66.3788 13.2301 66.3788 12.3177C66.3788 11.4053 66.5309 10.6069 66.797 9.92259C67.0631 9.23828 67.4813 8.62999 67.9375 8.13576C68.4317 7.64153 69.002 7.29938 69.6483 7.03325C70.2946 6.76713 71.0169 6.65308 71.7773 6.65308C72.2715 6.65308 72.7657 6.69109 73.1459 6.76713C73.5641 6.84316 73.9063 6.9192 74.2104 6.99523C74.5146 7.07127 74.7427 7.18532 74.9328 7.26136C75.1228 7.33739 75.2749 7.41343 75.3509 7.48946L74.6666 9.42836C74.3245 9.23828 73.9443 9.08621 73.5261 8.97215C73.1459 8.82008 72.6517 8.78206 72.1575 8.78206Z" fill="white"/>
<path d="M82.3081 11.5574C82.1181 11.5194 81.8519 11.4433 81.5858 11.4053C81.3197 11.3293 81.0155 11.3293 80.6734 11.3293C80.5213 11.3293 80.3692 11.3293 80.1411 11.3673C79.951 11.4053 79.799 11.4053 79.6849 11.4433V17.7162H77.3658V9.92261C77.784 9.77054 78.2783 9.65649 78.8485 9.50442C79.4188 9.39037 80.0651 9.31433 80.7494 9.31433C80.8635 9.31433 81.0155 9.31433 81.2056 9.35235C81.3957 9.35235 81.5478 9.39037 81.7379 9.42838C81.928 9.4664 82.08 9.50442 82.2701 9.50442C82.4602 9.54244 82.6123 9.58045 82.7263 9.61847L82.3081 11.5574Z" fill="white"/>
<path d="M90.672 17.4501C90.2919 17.5641 89.7596 17.6782 89.1513 17.7542C88.5431 17.8683 87.8587 17.9063 87.1744 17.9063C86.4901 17.9063 85.8818 17.8303 85.4256 17.6402C84.9694 17.4501 84.5892 17.184 84.3231 16.8418C84.057 16.4996 83.8669 16.0814 83.7528 15.6252C83.6388 15.169 83.5627 14.6368 83.5627 14.0665V9.50439H85.8818V13.8004C85.8818 14.5607 85.9959 15.093 86.186 15.4351C86.376 15.7773 86.7562 15.9294 87.2885 15.9294C87.4405 15.9294 87.6306 15.9294 87.8207 15.8914C88.0108 15.8914 88.1629 15.8533 88.3149 15.8533V9.50439H90.634V17.4501H90.672Z" fill="white"/>
<path d="M100.176 13.6103C100.176 14.2566 100.1 14.8268 99.9484 15.3591C99.7963 15.8913 99.5682 16.3095 99.264 16.6897C98.9599 17.0699 98.5797 17.374 98.1235 17.5641C97.6673 17.7542 97.1731 17.8682 96.5648 17.8682C96.2606 17.8682 95.9565 17.8302 95.6524 17.7922C95.3862 17.7162 95.0821 17.6401 94.854 17.5261V20.6055H92.5349V9.77047C92.725 9.69444 92.9911 9.65642 93.2573 9.58039C93.5234 9.54237 93.8275 9.46633 94.0936 9.42832C94.3978 9.3903 94.7019 9.35228 95.0061 9.31426C95.3102 9.27625 95.6143 9.27625 95.8805 9.27625C96.5648 9.27625 97.1731 9.3903 97.7053 9.58039C98.2376 9.77047 98.6938 10.0746 99.0359 10.4548C99.3781 10.835 99.6822 11.2912 99.8723 11.8234C100.1 12.3557 100.176 12.964 100.176 13.6103ZM97.8194 13.6863C97.8194 12.964 97.6673 12.3937 97.3251 11.9755C97.021 11.5573 96.5268 11.3292 95.8805 11.3292C95.6904 11.3292 95.4623 11.3292 95.3102 11.3672C95.1201 11.3672 95.0061 11.4052 94.854 11.4052V15.5872C95.0061 15.6632 95.1962 15.7773 95.4243 15.8153C95.6524 15.8913 95.8805 15.8913 96.1466 15.8913C97.2491 15.8913 97.8194 15.169 97.8194 13.6863Z" fill="white"/>
<path d="M109.339 13.6103C109.339 14.2566 109.263 14.8649 109.073 15.3972C108.883 15.9294 108.616 16.3856 108.274 16.7658C107.932 17.146 107.514 17.4501 107.02 17.6402C106.525 17.8303 105.955 17.9443 105.347 17.9443C104.739 17.9443 104.206 17.8303 103.712 17.6402C103.218 17.4501 102.8 17.146 102.458 16.7658C102.115 16.3856 101.811 15.9294 101.621 15.3972C101.431 14.8649 101.317 14.2566 101.317 13.6103C101.317 12.964 101.431 12.3938 101.621 11.8615C101.811 11.3293 102.115 10.8731 102.458 10.4929C102.8 10.1127 103.256 9.80856 103.75 9.61847C104.244 9.42838 104.777 9.31433 105.385 9.31433C105.993 9.31433 106.525 9.42838 107.02 9.61847C107.514 9.80856 107.932 10.1127 108.274 10.4929C108.616 10.8731 108.921 11.3293 109.111 11.8615C109.263 12.3557 109.339 12.964 109.339 13.6103ZM106.982 13.6103C106.982 12.888 106.83 12.3177 106.563 11.8995C106.259 11.4813 105.879 11.2912 105.347 11.2912C104.815 11.2912 104.396 11.4813 104.13 11.8995C103.826 12.3177 103.674 12.888 103.674 13.6103C103.674 14.3327 103.826 14.9029 104.13 15.3211C104.434 15.7393 104.815 15.9674 105.347 15.9674C105.879 15.9674 106.297 15.7393 106.563 15.3211C106.83 14.8649 106.982 14.2946 106.982 13.6103Z" fill="white"/>
</g>
<defs>
<linearGradient id="paint0_linear" x1="14.2295" y1="30.8567" x2="56.0071" y2="30.8567" gradientUnits="userSpaceOnUse">
<stop stop-color="#F18518"/>
<stop offset="1" stop-color="#EA5323"/>
</linearGradient>
<linearGradient id="paint1_linear" x1="0" y1="25.051" x2="41.9405" y2="25.051" gradientUnits="userSpaceOnUse">
<stop stop-color="#F18518"/>
<stop offset="1" stop-color="#EA5323"/>
</linearGradient>
<clipPath id="clip0">
<rect width="171.346" height="56" fill="white"/>
</clipPath>
</defs>
</svg>